<svg width="92" height="23" viewBox="0 0 92 23" fill="none" xmlns="http://www.w3.org/2000/svg">
<path d="M91.1145 14.9946C91.1981 15.228 90.9426 15.0843 90.8173 15.0439C90.3235 14.8434 89.8559 14.5873 89.4241 14.2809C88.5899 13.7301 87.6903 13.278 86.7447 12.9343C85.84 12.6975 84.9862 12.3068 84.2232 11.7807C84.0485 11.679 83.8613 11.5991 83.6659 11.5428C83.6137 11.5185 83.5555 11.5089 83.498 11.5153C83.4405 11.5216 83.386 11.5436 83.3408 11.5787C83.3245 11.5992 83.3132 11.6231 83.3079 11.6485C83.3025 11.6739 83.3032 11.7002 83.31 11.7253C83.3167 11.7504 83.3292 11.7737 83.3466 11.7934C83.3641 11.8131 83.3859 11.8287 83.4105 11.839C83.8749 12.1218 83.8749 12.4989 84.1581 12.84C83.9089 12.7613 83.6654 12.6668 83.4291 12.5572C82.8764 12.3687 82.2867 12.0724 81.7666 12.1083C81.0732 12.1632 80.3762 12.0586 79.7327 11.8031C79.0036 11.5311 78.205 11.4856 77.4479 11.6729C77.16 11.7403 75.8505 11.4754 75.7437 11.2824C75.5208 10.8829 75.1539 10.8605 74.7267 10.8336C74.2742 10.7999 73.8279 10.7109 73.3986 10.5687C72.4693 10.2877 71.5146 10.0923 70.5473 9.9852C70.2569 9.95486 69.9685 9.9084 69.6836 9.84605C68.5366 9.55877 67.3385 9.48246 66.2193 9.08746C65.9402 9.00178 65.6433 8.98481 65.3556 9.03808C65.1378 9.07857 64.914 9.07857 64.6962 9.03808C63.8161 8.84429 62.9145 8.75684 62.0121 8.77774C61.0601 8.77774 60.0617 8.60717 59.1934 8.88547C59.6577 9.00217 60.2382 9.06501 60.3264 9.55428L59.3559 9.49593C58.9565 9.469 58.585 9.44207 58.6175 9.04706C58.6193 9.00713 58.6119 8.96731 58.596 8.93042C58.5801 8.89352 58.556 8.86043 58.5255 8.83348C58.495 8.80653 58.4587 8.78637 58.4192 8.77442C58.3798 8.76246 58.3381 8.759 58.2971 8.76427C58.0464 8.76427 57.8792 8.87649 57.9303 9.06501C58.0185 9.3882 57.6098 9.33883 57.4938 9.24008C57.1594 8.95729 56.8668 9.11439 56.565 9.19968C56.3356 9.28653 56.0916 9.33216 55.8452 9.33434C54.6564 9.24905 53.5234 9.55428 52.3671 9.61263C53.0729 9.88196 53.7602 10.1333 54.5775 9.85053C54.8765 9.75208 55.1903 9.70204 55.5062 9.70241C57.2755 9.70241 59.0448 9.75627 60.8094 9.87747C60.9365 9.88122 61.0628 9.89929 61.1855 9.93133C62.0879 10.2065 63.0259 10.3576 63.9718 10.3802C64.2899 10.36 64.6084 10.4139 64.9005 10.5373C64.0925 10.847 63.3031 10.5867 62.5369 10.5373C61.6917 10.479 60.8373 10.4206 59.9921 10.443C59.1325 10.3999 58.2706 10.4405 57.4195 10.5642L58.9565 10.7662C58.6084 10.8462 58.2508 10.8809 57.8931 10.8695C57.2383 10.7976 56.5789 10.7752 55.9195 10.7617C55.5503 10.7051 55.1742 10.7051 54.805 10.7617C54.1841 10.9257 53.5446 11.0146 52.9011 11.0266C52.4367 11.0759 52.0234 10.9817 51.6101 11.0266C50.1381 11.2465 48.5963 11.1478 47.1568 11.5428C47.0074 11.5913 46.8496 11.6111 46.6924 11.6011C45.9308 11.5203 45.2064 11.7941 44.4541 11.7986C44.1708 11.7986 43.6368 11.7986 44.0455 12.2071C44.1337 12.2879 43.9851 12.3462 43.8736 12.3956C43.5594 12.5288 43.2181 12.5917 42.8753 12.5797C42.4109 12.5797 42.3551 12.4629 42.6059 12.0635C42.2251 12.1039 41.6354 12.0186 41.6446 12.3373C41.6446 12.7861 41.3567 12.7861 40.9249 12.858C40.5185 12.9827 40.0781 12.9522 39.6943 12.7727C39.1742 12.4136 38.9606 12.4091 38.3012 12.6021C37.6417 12.7951 37.1077 13.051 36.3833 12.9253C36.0954 12.8669 35.5985 12.9253 35.4824 13.2978C35.4174 13.5088 35.1852 13.5896 34.9252 13.6345L33.532 13.8589C33.8432 13.5447 33.9082 13.3337 33.3323 13.4101C32.9261 13.4196 32.5224 13.4754 32.1296 13.5761C31.6478 13.724 31.1559 13.8395 30.6576 13.9218C29.088 14.2046 27.5137 14.4784 26.0974 14.7836C27.0587 14.4335 28.2567 14.3347 29.3202 13.8275C28.4193 14.2225 27.4952 14.0923 26.5943 14.2764C27.3512 14.0699 28.1314 13.9173 28.9162 13.7467C29.2691 13.6794 29.5152 13.5806 29.1065 13.3786C29.0555 13.3517 29.0787 13.2619 29.0555 13.1587C30.1633 13.0816 31.2553 12.8596 32.3014 12.4989C32.1468 12.3699 31.9541 12.2914 31.7507 12.2745C31.5472 12.2576 31.3435 12.3031 31.1684 12.4046C30.5229 12.7188 29.6777 12.5886 29.0508 13.0106C28.9802 13.05 28.9001 13.0707 28.8186 13.0707C28.7371 13.0707 28.657 13.05 28.5864 13.0106C28.4967 12.9876 28.4029 12.9837 28.3115 12.9992C28.2201 13.0147 28.1333 13.0492 28.057 13.1003C27.3976 13.4235 26.6918 13.3158 26.0138 13.419C25.9621 13.4337 25.9065 13.4289 25.8582 13.4056C25.81 13.3822 25.7727 13.3422 25.7538 13.2934C25.7538 13.1946 25.8606 13.1318 25.9906 13.1003L28.3125 12.5662C28.9672 12.4136 29.6777 12.3732 30.2396 11.9961C29.1948 12.0455 28.2335 12.5841 27.1283 12.5976C27.3791 12.2295 28.0013 11.866 27.0494 11.8256C27.1422 11.6999 27.2676 11.4979 26.9843 11.5383C26.311 11.637 25.7027 11.3767 25.0061 11.6729C24.7833 11.7796 24.5299 11.8113 24.2863 11.7627C24.2863 11.4665 24.8993 11.6011 24.9504 11.2465C23.5573 11.5517 22.192 11.664 20.8128 11.9378C21.449 11.5158 22.4892 11.5428 22.8561 10.7976C22.4122 10.7909 21.9701 10.8531 21.5465 10.9817C20.0652 11.5338 18.5235 11.8794 17.0142 12.3283C16.3223 12.5123 15.6211 12.8759 14.9385 12.9073C14.2647 13.0186 13.613 13.2306 13.0067 13.5357C12.7043 13.68 12.3943 13.8088 12.0779 13.9218C10.5409 14.2719 9.38921 15.3537 7.9868 15.9551C7.9584 15.9718 7.93191 15.9914 7.90783 16.0135C7.16019 16.5387 6.40792 17.0683 5.716 17.6563C4.67116 18.5541 3.4963 19.2902 2.5304 20.2688C1.79024 21.08 0.920071 21.7711 -0.046875 22.3156C0.844724 21.548 1.46697 20.8029 2.22854 20.179C3.1935 19.2412 4.23729 18.3824 5.34915 17.6115C5.40256 17.5822 5.44701 17.5398 5.478 17.4885C5.50899 17.4373 5.52542 17.379 5.52562 17.3197C5.52562 17.2075 5.40023 17.212 5.26092 17.2793C5.12161 17.3466 4.8662 17.4948 4.79655 17.3377C4.72689 17.1805 4.95443 17.01 5.14483 16.8888C5.84139 16.404 6.57045 15.991 7.28094 15.5422C9.51923 14.1956 11.9247 13.1587 14.293 12.059C15.6861 11.4305 17.0514 10.8201 18.4724 10.3039C19.0323 10.1447 19.5524 9.87575 20.0002 9.51388C18.816 9.76974 17.8037 10.2411 16.7495 10.3129C17.1582 10.1603 17.4647 9.9044 17.8408 9.75627C18.2491 9.59552 18.6823 9.50147 19.1225 9.47797C19.299 9.47797 19.4568 9.33882 19.4615 9.21763C19.4615 8.76876 20.0002 8.60717 20.4831 8.44109C20.8685 8.30643 21.2772 8.21217 21.6719 8.10893C22.1688 7.97876 22.6517 7.85756 22.87 7.4446C22.9907 7.22017 23.3344 7.17079 23.6548 7.08551C24.2544 6.96505 24.8407 6.78918 25.4055 6.56033C25.907 6.29999 26.4689 6.07107 27.0587 5.74788L26.5246 5.81072C25.8559 5.86907 25.8606 5.84214 25.9674 5.39327C26.0231 5.15986 26.3156 5.12844 26.4921 5.00725C26.6686 4.88605 26.7104 4.87259 26.6593 4.78282C26.6082 4.69304 26.4689 4.72895 26.3296 4.74242C24.6015 4.95338 22.9016 5.34159 21.2586 5.9005C19.6844 6.34936 18.138 6.95982 16.4709 7.61068C17.3996 6.87454 18.6813 6.71295 19.3825 5.9768C19.5221 5.88518 19.6805 5.82392 19.8469 5.79726C21.3979 5.38879 22.8607 4.8277 24.356 4.36986C25.8696 3.9876 27.3582 3.51844 28.814 2.9649C29.817 2.53847 31.0244 2.42626 32.125 2.11654C32.6776 1.95495 33.2998 1.95046 33.806 1.66767C34.0347 1.5874 34.2799 1.56123 34.5212 1.59136C35.357 1.5375 36.2626 1.55994 37.0056 1.25022C38.0132 0.801355 39.2624 1.25022 40.1679 0.612831C40.2664 0.59741 40.3667 0.59741 40.4651 0.612831C40.952 0.657981 41.4431 0.635306 41.9233 0.5455C43.5114 0.3076 45.1739 0.478171 46.7296 0.0113478C46.8596 -0.0290503 47.0685 0.051745 47.245 0.0472563C48.262 0.0472563 49.2372 0.27618 50.3145 0.0921442C50.7992 0.0152761 51.2948 0.0320585 51.7727 0.14152C52.2217 0.231325 52.6832 0.248013 53.1379 0.190896C54.406 0.115338 55.6784 0.145372 56.9411 0.280668C58.6454 0.388396 60.3589 0.635275 62.0493 0.864198C63.9486 1.12005 65.8571 1.40284 67.7564 1.76193C67.7286 1.95495 67.4871 1.90557 67.2178 1.87864C66.6234 1.82477 66.1265 1.55545 65.5414 1.4971C63.3727 1.29511 61.2412 0.940504 59.0819 0.801355C58.5834 0.760369 58.0816 0.775433 57.5866 0.846243C58.1561 1.03906 58.7574 1.12884 59.3605 1.11107C59.9342 1.09304 60.5073 1.15964 61.0601 1.30858C61.6841 1.4586 62.3191 1.56214 62.9594 1.61829C64.533 1.78528 66.0947 2.04461 67.6357 2.39484C69.3771 2.79882 70.9931 3.48559 72.7717 3.8357C72.8135 3.8357 72.8506 3.90752 72.897 3.9569C72.7624 4.00179 72.6184 4.03769 72.493 4.09156C72.2934 4.18133 71.8569 4.09156 71.9451 4.41025C72.0333 4.72895 72.3816 4.80077 72.7067 4.85912C74.7128 5.3439 76.4588 6.34039 78.4045 6.9688C78.5671 7.02267 78.6924 7.12142 78.581 7.2471L75.14 6.2147C74.3302 5.89741 73.4753 5.70067 72.6045 5.63118C72.3268 5.60831 72.0591 5.5205 71.8243 5.37532C71.6507 5.26595 71.454 5.1954 71.2485 5.16884C70.3506 5.05047 69.4617 4.87503 68.5877 4.64367C68.4628 4.59426 68.3273 4.57499 68.193 4.5875C68.0587 4.60001 67.9296 4.64394 67.8168 4.71548C67.9933 4.96236 68.2812 4.96685 68.5598 5.0252C69.8508 5.31248 71.1417 5.59527 72.4002 5.98129C73.1125 6.20264 73.8117 6.46188 74.4945 6.75783C75.3722 7.12142 76.3288 7.4446 77.2807 7.77228C77.842 7.9449 78.3924 8.14873 78.9293 8.38274C81.1536 9.36576 83.4105 10.2859 85.5931 11.3587C86.1085 11.6236 86.624 11.9916 87.2462 11.9916C87.3421 12.0221 87.4328 12.066 87.5156 12.1218L90.5619 13.7826C91.0179 13.9991 91.4388 14.2788 91.811 14.613C91.486 14.7432 90.9241 14.4829 91.1145 14.9946ZM32.9655 11.4979C32.7008 11.3049 32.4733 11.4395 32.19 11.6325C32.3178 11.6903 32.461 11.7084 32.5999 11.6843C32.7387 11.6602 32.8665 11.595 32.9655 11.4979V11.4979ZM30.0864 3.81326C30.7551 4.02872 31.3495 3.72349 31.9439 3.58434C31.6339 3.50252 31.3103 3.48063 30.9915 3.51991C30.6728 3.5592 30.3652 3.65888 30.0864 3.81326V3.81326ZM33.337 12.1891C33.207 12.4046 33.6899 12.4585 33.5181 12.7053C33.4577 12.7951 33.6713 12.858 33.8432 12.8176C34.015 12.7772 34.224 12.656 34.1682 12.6021C33.8153 12.2744 34.3075 12.2924 34.5351 12.1532C34.7626 12.0141 35.0877 11.9961 35.0923 11.7492C34.5038 11.8578 33.9236 12.0048 33.3556 12.1891H33.337ZM35.3013 11.0625C35.2435 11.053 35.184 11.0608 35.1309 11.0849C35.0778 11.1089 35.0336 11.1481 35.0041 11.1971C34.953 11.2959 35.0366 11.3498 35.1945 11.3318C35.3524 11.3138 35.4267 11.2734 35.4545 11.1882C35.4824 11.1029 35.4035 11.0759 35.3199 11.0625H35.3013ZM36.5505 11.4709C36.1836 11.3812 35.8028 11.26 35.4917 11.6236C35.4443 11.6786 35.3832 11.7211 35.3141 11.747C35.2451 11.7729 35.1704 11.7814 35.097 11.7717C35.5424 11.9449 36.0379 11.9545 36.4901 11.7986C36.5654 11.7719 36.6314 11.7252 36.6805 11.664C36.7826 11.5607 36.6805 11.4979 36.569 11.4709H36.5505ZM41.3614 10.9458C41.9651 10.8515 42.5177 11.1208 42.9495 10.6765C42.6927 10.5526 42.4014 10.5119 42.1187 10.5604C41.836 10.6089 41.577 10.744 41.38 10.9458H41.3614ZM47.0825 10.1603C48.6056 10.1603 51.1411 10.0031 51.7727 9.79218C50.2053 9.70504 48.6331 9.82892 47.1011 10.1603H47.0825ZM55.1347 8.70143C55.0047 8.70143 54.8793 8.70143 54.8747 8.80916C54.87 8.91689 54.9583 8.91689 55.0558 8.92138C55.1533 8.92587 55.3112 8.92138 55.3158 8.81814C55.3205 8.7149 55.2555 8.71041 55.1533 8.70143H55.1347Z" fill="#B0A05F"/>
</svg>
